<?xml version="1.0" encoding="utf-8"?><svg viewBox="0 0 18 17" xmlns="http://www.w3.org/2000/svg" xmlns:xlink="http://www.w3.org/1999/xlink"><style>:root>svg{display:none}:root>svg:target{display:block}</style><svg fill="none" viewBox="0 0 17 17" id="blog" xmlns="http://www.w3.org/2000/svg"><path d="M6.755.28a.346.346 0 00-.354.347v1.35c0 .191.15.341.34.341v.014a8.155 8.155 0 017.829 7.828h.013c0 .19.15.34.341.34h1.35a.346.346 0 00.348-.354C16.438 4.786 12.115.463 6.755.279zm0 3.409a.35.35 0 00-.354.347v1.35c0 .191.15.341.34.341v.02a4.739 4.739 0 014.412 4.413h.02c0 .19.15.34.342.34h1.35a.35.35 0 00.348-.354 6.842 6.842 0 00-6.458-6.457zm-6.15.675c-.191 0-.341.15-.341.34v7.501a4.44 4.44 0 004.432 4.432 4.44 4.44 0 004.432-4.432 4.44 4.44 0 00-4.432-4.432c-.19 0-.34.15-.34.341v2.046c0 .19.15.34.34.34a1.705 1.705 0 11-1.705 1.705v-7.5c0-.191-.15-.341-.34-.341H.605z" fill="#fff"/></svg><svg fill="none" viewBox="0 0 17 13" id="discord" xmlns="http://www.w3.org/2000/svg"><path d="M10.84.118c-.162.29-.306.59-.432.898a11.97 11.97 0 00-3.74 0 8.278 8.278 0 00-.433-.898c-1.167.2-2.301.557-3.372 1.062a14.15 14.15 0 00-2.45 9.463 13.553 13.553 0 004.14 2.114c.34-.448.643-.923.907-1.42a7.879 7.879 0 01-1.397-.678c.122-.08.236-.17.343-.27a9.52 9.52 0 008.263 0c.114.099.229.189.343.27-.444.27-.911.499-1.396.686.253.508.548.994.882 1.453a13.42 13.42 0 004.131-2.114 14.06 14.06 0 00-2.45-9.464A13.137 13.137 0 0010.84.118zM5.827 8.732A1.584 1.584 0 014.357 7.1a1.576 1.576 0 011.47-1.633A1.576 1.576 0 017.297 7.1a1.576 1.576 0 01-1.47 1.633zm5.421 0A1.584 1.584 0 019.778 7.1a1.576 1.576 0 011.47-1.633 1.568 1.568 0 011.47 1.633 1.568 1.568 0 01-1.47 1.633z" fill="#fff"/></svg><svg fill="none" viewBox="0 0 17 17" id="instagram" xmlns="http://www.w3.org/2000/svg"><path d="M8.76 5.73a2.733 2.733 0 00-2.728 2.728 2.733 2.733 0 002.728 2.728 2.733 2.733 0 002.727-2.728A2.733 2.733 0 008.76 5.731zm8.18 2.728c0-1.13.01-2.249-.053-3.376-.064-1.31-.362-2.472-1.32-3.43-.96-.959-2.12-1.256-3.43-1.319C11.009.27 9.89.28 8.763.28c-1.13 0-2.249-.01-3.376.053-1.31.063-2.472.362-3.43 1.32-.96.96-1.256 2.12-1.32 3.43C.574 6.211.584 7.33.584 8.457c0 1.128-.01 2.249.054 3.376.063 1.31.362 2.472 1.32 3.43.959.96 2.12 1.256 3.429 1.32 1.13.063 2.248.053 3.376.053 1.13 0 2.248.01 3.376-.054 1.31-.063 2.472-.362 3.43-1.32.959-.959 1.255-2.12 1.319-3.429.065-1.127.053-2.246.053-3.376zm-8.18 4.197a4.19 4.19 0 01-4.197-4.197A4.19 4.19 0 018.76 4.262a4.19 4.19 0 014.196 4.196 4.19 4.19 0 01-4.196 4.197zm4.368-7.585a.979.979 0 110-1.96.979.979 0 110 1.96z" fill="#fff"/></svg><svg fill="none" viewBox="0 0 18 17" id="linkedin" xmlns="http://www.w3.org/2000/svg"><path d="M4.376 16.276V5.726H.869v10.55h3.507zM2.623 4.286c1.223 0 1.984-.81 1.984-1.823C4.584 1.427 3.846.64 2.647.64c-1.2 0-1.984.787-1.984 1.823 0 1.012.76 1.822 1.937 1.822h.023zm3.694 11.99h3.506v-5.891c0-.316.023-.63.116-.856.253-.63.83-1.282 1.799-1.282 1.269 0 1.776.967 1.776 2.385v5.644h3.507v-6.049c0-3.24-1.73-4.748-4.037-4.748-1.892 0-2.723 1.057-3.184 1.777h.023v-1.53H6.317c.046.99 0 10.55 0 10.55z" fill="#fff"/></svg><svg fill="none" viewBox="0 0 17 17" id="pinterest" xmlns="http://www.w3.org/2000/svg"><path d="M8.694.26a8.19 8.19 0 00-2.986 15.816c-.071-.648-.136-1.642.028-2.35.15-.64.961-4.07.961-4.07s-.245-.492-.245-1.217c0-1.136.66-1.989 1.481-1.989.7 0 1.037.526 1.037 1.154 0 .703-.446 1.754-.678 2.727-.194.816.41 1.48 1.213 1.48 1.454 0 2.575-1.534 2.575-3.75 0-1.954-1.41-3.326-3.422-3.326-2.33 0-3.696 1.75-3.696 3.552 0 .706.27 1.464.608 1.873a.25.25 0 01.058.236c-.062.256-.2.819-.229.931-.036.154-.117.185-.274.113-1.021-.472-1.662-1.967-1.662-3.175 0-2.58 1.878-4.955 5.412-4.955 2.84 0 5.05 2.027 5.05 4.73 0 2.826-1.781 5.099-4.259 5.099-.829 0-1.608-.43-1.884-.942l-.512 1.946c-.184.714-.686 1.607-1.023 2.15a8.218 8.218 0 002.425.365c4.515 0 8.19-3.666 8.19-8.19 0-4.526-3.675-8.19-8.19-8.19l.022-.019z" fill="#fff"/></svg><svg fill="none" viewBox="0 0 17 15" id="telegram" xmlns="http://www.w3.org/2000/svg"><path d="M16.735 1.848L14.266 13.49c-.186.821-.671 1.026-1.362.639l-3.761-2.772-1.815 1.746c-.201.2-.369.369-.756.369l.27-3.831 6.972-6.3c.303-.27-.066-.42-.471-.149L4.724 8.62l-3.71-1.162c-.807-.251-.821-.806.169-1.194L15.694.673c.672-.253 1.26.149 1.041 1.175z" fill="#fff"/></svg><svg fill="none" viewBox="0 0 17 14" id="twitter" xmlns="http://www.w3.org/2000/svg"><path d="M16.736 2.462a6.783 6.783 0 01-1.927.52 3.329 3.329 0 001.476-1.827 6.83 6.83 0 01-2.133.802 3.37 3.37 0 00-2.45-1.043c-1.853 0-3.355 1.48-3.355 3.305 0 .258.03.51.086.752a9.576 9.576 0 01-6.916-3.452 3.242 3.242 0 00-.453 1.66 3.288 3.288 0 001.492 2.75 3.395 3.395 0 01-1.52-.414v.04c0 1.602 1.158 2.938 2.691 3.242a3.448 3.448 0 01-.883.116c-.217 0-.427-.02-.632-.062a3.352 3.352 0 003.134 2.296 6.798 6.798 0 01-4.167 1.413c-.272 0-.539-.017-.801-.046A9.592 9.592 0 005.522 14c6.172 0 9.547-5.036 9.547-9.403l-.011-.428a6.647 6.647 0 001.678-1.708z" fill="#fff"/></svg><svg fill="none" viewBox="0 0 17 13" id="youtube" xmlns="http://www.w3.org/2000/svg"><path d="M16.037 2.506a2.055 2.055 0 00-1.447-1.455C13.315.707 8.2.707 8.2.707s-5.116 0-6.392.344A2.055 2.055 0 00.362 2.506C.02 3.79.02 6.47.02 6.47s0 2.68.342 3.963a2.025 2.025 0 001.446 1.433c1.276.344 6.391.344 6.391.344s5.116 0 6.391-.344a2.025 2.025 0 001.447-1.433c.341-1.284.341-3.963.341-3.963s0-2.679-.341-3.963zm-9.51 6.396V4.037l4.275 2.432-4.276 2.433z" fill="#fff"/></svg></svg>